<?xml version="1.0" encoding="UTF-8"?>
<svg width="1080px" height="394px" viewBox="0 0 1080 394" version="1.1" xmlns="http://www.w3.org/2000/svg" xmlns:xlink="http://www.w3.org/1999/xlink">
    <!-- Generator: Sketch 45.2 (43514) - http://www.bohemiancoding.com/sketch -->
    <title>Combined Shape</title>
    <desc>Created with Sketch.</desc>
    <defs></defs>
    <g id="Page-1" stroke="none" stroke-width="1" fill="none" fill-rule="evenodd">
        <path d="M688.36882,215.156418 C736.500075,247.802467 778.032604,261.414097 812.966406,255.991306 C887.905381,244.358493 1004.78129,129.2999 992.823627,123.350681 C980.865965,117.401462 953.417173,117.827243 936.932255,108.253025 C925.942309,101.870212 933.437127,77.2868789 959.416708,34.5030247 C959.416708,87.8858372 977.936745,102.720473 1014.97682,79.006931 C1052.01689,55.2933893 1043.43294,30.7751602 989.224972,5.4522435 C1045.33387,-2.74938398 1075.06188,-0.957717316 1078.40902,10.8272435 C1081.75615,22.6122043 1079.58301,38.2332981 1071.88958,57.6905247 C966.928396,187.279066 921.94262,267.767348 936.932255,299.155368 C959.416708,346.2374 856.130996,283.913181 812.966406,372.401462 C769.801816,460.889743 777.902398,245.210056 728.917707,299.155368 C680.992081,351.934366 684.191893,214.004621 648.007433,298.325194 C682.920316,334.801118 716.96815,358.965165 651.726113,328.590993 C646.84465,326.318372 641.995596,324.22014 637.178954,322.296297 C628.804476,337.058958 623.17253,335.033737 620.283118,316.220635 C590.050442,306.57239 561.136127,304.017809 533.540175,308.556891 C535.067266,314.896343 536.904149,321.574377 539.050823,328.590993 C528.976625,322.91936 518.70057,318.333856 508.222656,314.834479 C497.744743,318.333856 487.468687,322.91936 477.394489,328.590993 C479.541163,321.574377 481.378046,314.896343 482.905138,308.556891 C453.40883,303.705231 422.406334,306.957865 389.897649,318.314791 C387.444872,334.184474 383.024362,335.867165 376.636118,323.362865 C372.685509,324.98883 368.713203,326.731539 364.7192,328.590993 C300.192123,358.632307 332.790688,335.324177 367.290545,299.519907 C335.956712,211.878374 338.961857,351.858637 298.018873,298.751512 C256.429688,244.8062 263.307277,460.485887 226.659498,371.997606 C190.011719,283.509325 102.319654,345.833544 121.409498,298.751512 C134.136061,267.363492 95.9420502,186.87521 6.82746682,57.2866686 C0.295563305,37.8294419 -1.54948878,22.2083482 1.29231057,10.4233874 C4.13410992,-1.36157344 29.3739127,-3.15324011 77.0117188,5.04838737 C30.9878425,30.371304 23.6998627,54.8895332 55.1477793,78.6030749 C86.595696,102.316617 102.319654,87.4819811 102.319654,34.0991686 C124.376946,76.8830228 130.740227,101.466356 121.409498,107.849169 C107.413404,117.423387 84.1087168,116.997606 73.9563731,122.946825 C63.8040293,128.896044 163.034498,243.954637 226.659498,255.58745 C255.104163,260.788101 288.701708,248.481843 327.452133,218.668676 C328.251123,213.182751 330.136973,206.388877 333.32998,198.038698 C357.480382,134.881869 387.241716,94.003588 422.613982,75.4038561 C472.282065,115.074362 496.21792,127.534028 494.421549,112.782854 C493.901155,108.509557 499.592398,111.026165 508.222656,117.491007 C516.852914,111.026165 522.544157,108.509557 522.023763,112.782854 C520.227392,127.534028 544.163248,115.074362 593.83133,75.4038561 C629.203596,94.003588 658.96493,134.881869 683.115333,198.038698 C685.65883,204.690314 687.372876,210.354384 688.368827,215.156451 Z M619.072734,226.408554 C608.521291,225.049831 602.872751,228.420749 608.744119,243.981472 C610.951547,249.831758 614.172826,255.845967 618.071356,261.879689 C618.208232,251.261366 618.542024,239.437655 619.072734,226.408554 Z M391.332293,227.536294 C391.884442,243.862491 392.170219,258.268198 392.189625,270.753415 C398.869293,261.784026 404.411261,252.700692 407.701194,243.981472 C414.613956,225.660768 405.557865,224.237528 391.332293,227.536288 Z M570.757952,208.569509 C563.777611,209.374648 551.346175,206.393297 531.636247,198.038698 C523.100059,194.420398 515.317729,191.737496 508.222656,189.878305 C501.127588,191.737495 493.345256,194.420397 484.809065,198.038698 C465.099139,206.393296 452.667703,209.374648 445.687362,208.569509 C428.670205,238.986685 438.642419,290.149479 432.723115,290.149479 C427.915184,290.149479 457.772144,270.825385 487.409167,253.570599 C485.791001,244.334017 482.452775,236.977346 477.394489,231.500588 C468.446691,221.812537 485.374828,229.32617 508.222656,241.803156 C531.070485,229.32617 547.998622,221.812537 539.050823,231.500588 C533.992538,236.977346 530.654312,244.334017 529.036145,253.570599 C558.673169,270.825385 588.530129,290.149479 583.722198,290.149479 C577.802893,290.149479 587.77511,238.986675 570.757946,208.569501 Z" id="Combined-Shape" fill="#000000"></path>
    </g>
</svg>