<?xml version="1.0" encoding="UTF-8"?>
<svg width="338px" height="343px" viewBox="0 0 338 343" version="1.1" xmlns="http://www.w3.org/2000/svg" xmlns:xlink="http://www.w3.org/1999/xlink">
    <!-- Generator: Sketch 45.2 (43514) - http://www.bohemiancoding.com/sketch -->
    <title>Group 2</title>
    <desc>Created with Sketch.</desc>
    <defs></defs>
    <g id="Page-1" stroke="none" stroke-width="1" fill="none" fill-rule="evenodd">
        <g id="Group-2" transform="translate(-1.000000, -5.968367)">
            <g id="Group" transform="translate(0.991602, 0.000000)" fill="#000000">
                <path d="M168.041699,94.9652707 C170.280551,273.688642 170.280551,359.052932 168.041699,351.05814 C164.683422,339.065952 121.432526,355.8922 119.623627,324.966609 C117.814728,294.041018 89.1396082,278.740907 96.6463462,257.766198 C104.153084,236.791489 87.1021758,239.433179 72.7975404,219.694099 C58.4929051,199.955019 98.8464634,182.687198 82.620599,154.906845 C71.803356,136.386609 46.3057534,118.651392 6.12779126,101.701193 C45.8073701,97.2105781 47.4380907,64.9499392 11.0199533,4.91927617 C1.26327078,-11.1633728 99.7763597,104.617866 96.6463462,82.2255075 C90.8432788,40.7099154 114.64173,44.9565031 168.041699,94.9652707 Z M141.555077,207.178996 C111.933546,192.529624 98.2796492,192.529624 100.593387,207.178996 C102.907126,221.828368 114.142701,230.622381 134.300113,233.561035 L141.555077,207.178996 Z M158.683454,312.712247 C139.557605,303.25353 130.74164,303.25353 132.235561,312.712247 C133.729481,322.170964 140.983999,327.849029 153.999113,329.746441 L158.683454,312.712247 Z" id="Combined-Shape" transform="translate(87.924315, 177.475973) rotate(-2.000000) translate(-87.924315, -177.475973) "></path>
                <path d="M171.243102,96.5429493 C169.004251,275.266321 169.004251,360.630611 171.243102,352.635819 C174.60138,340.64363 217.852276,357.469879 219.661175,326.544288 C221.470074,295.618696 250.145193,280.318585 242.638455,259.343876 C235.131717,238.369167 252.182626,241.010857 266.487261,221.271778 C280.791896,201.532698 240.438338,184.264876 256.664202,156.484523 C267.481445,137.964288 292.979048,120.22907 333.15701,103.278872 C293.477431,98.7882568 291.846711,66.5276178 328.264848,6.49695478 C338.021531,-9.58569421 239.508442,106.195544 242.638455,83.8031861 C248.441523,42.287594 224.643072,46.5341817 171.243102,96.5429493 Z M197.729725,208.756674 C227.351256,194.107302 241.005152,194.107302 238.691414,208.756674 C236.377676,223.406046 225.142101,232.200059 204.984689,235.138714 L197.729725,208.756674 Z M180.601347,314.289926 C199.727197,304.831209 208.543161,304.831209 207.049241,314.289926 C205.55532,323.748643 198.300803,329.426707 185.285688,331.32412 L180.601347,314.289926 Z" id="Combined-Shape-Copy" transform="translate(251.360487, 179.053652) rotate(3.000000) translate(-251.360487, -179.053652) "></path>
            </g>
            <path d="M336.372478,186.468034 C315.422146,193.451664 291.663216,205.606023 265.095688,222.931112 C225.244397,248.918746 275.068826,253.584674 254.834172,306.504456 C241.344402,341.78431 229.138246,334.434383 218.215703,284.454672 C233.061606,310.829666 243.620669,315.034845 249.89289,297.070209 C259.301222,270.123255 249.479914,276.24631 247.227949,239.855747 C245.726639,215.595372 275.441482,197.799468 336.372478,186.468034 Z" id="Path-6" fill="#000000"></path>
            <path d="M2.7554491,186.468034 C23.7057813,193.451664 47.4647111,205.606023 74.0322386,222.931112 C113.88353,248.918746 64.0591006,253.584674 84.2937549,306.504456 C97.7835245,341.78431 109.989681,334.434383 120.912224,284.454672 C106.06632,310.829666 95.507258,315.034845 89.2350368,297.070209 C79.8267051,270.123255 89.6480124,276.24631 91.8999779,239.855747 C93.4012882,215.595372 63.6864453,197.799468 2.7554491,186.468034 Z" id="Path-6-Copy" fill="#000000"></path>
            <path d="M336.08503,69.1925873 C318.079448,74.3654165 297.66004,83.3682461 274.826808,96.201076 C240.576959,115.450321 283.398135,118.90641 266.007636,158.104509 C254.41397,184.236575 243.923494,178.792426 234.536208,141.772061 C247.295392,161.308227 256.370287,164.423036 261.760894,151.116489 C269.846803,131.156667 261.405965,135.692063 259.470533,108.737286 C258.180245,90.7674355 283.718411,77.5858692 336.08503,69.1925873 Z" id="Path-6-Copy-3" fill="#E965BE"></path>
            <path d="M0.772244846,69.1925873 C18.7778274,74.3654165 39.197235,83.3682461 62.0304676,96.201076 C96.2803165,115.450321 53.45914,118.90641 70.8496394,158.104509 C82.4433056,184.236575 92.9337816,178.792426 102.321067,141.772061 C89.5618832,161.308227 80.486988,164.423036 75.0963815,151.116489 C67.0104719,131.156667 75.4513098,135.692063 77.3867422,108.737286 C78.6770304,90.7674355 53.1388646,77.5858692 0.772244846,69.1925873 Z" id="Path-6-Copy-2" fill="#E965BE"></path>
            <polygon id="Triangle" stroke="#E965BE" fill="#E965BE" points="171.105595 243.004496 144.347831 73.8690614 197.863358 73.8690614"></polygon>
            <polygon id="Triangle-Copy" stroke="#E965BE" fill="#E965BE" transform="translate(171.531674, 283.978775) scale(1, -1) translate(-171.531674, -283.978775) " points="171.531674 298.166318 144.77391 269.791233 198.289438 269.791233"></polygon>
        </g>
    </g>
</svg>