<?xml version="1.0" encoding="UTF-8"?>
<svg width="290px" height="216px" viewBox="0 0 290 216" version="1.1" xmlns="http://www.w3.org/2000/svg" xmlns:xlink="http://www.w3.org/1999/xlink">
    <g id="Page-1" stroke="none" stroke-width="1" fill="none" fill-rule="evenodd">
        <g id="Group-3" transform="translate(0.000000, -1.000000)">
            <path d="M144.576274,37.5763945 C151.461343,32.4188565 156.001718,30.4111506 155.586556,33.8203125 C154.153443,45.5885417 173.249051,35.6484375 212.873381,4 C241.092758,18.8385417 264.835831,51.4505208 284.102601,101.835938 C313.002755,177.414063 207.674718,93.1796875 224.770543,138.488281 C241.866368,183.796875 335.187003,241.429688 259.060829,205.988281 C225.7389,190.474879 194.310007,185.147259 164.774149,190.005424 C165.992436,195.062929 167.457869,200.390548 169.170448,205.988281 C161.133429,201.463552 152.935371,197.805316 144.576274,195.013575 C136.217178,197.805316 128.01912,201.463552 119.9821,205.988281 C121.694679,200.390548 123.160112,195.062929 124.378399,190.005424 C94.8425411,185.147259 63.4136478,190.474879 30.0917195,205.988281 C-46.0344547,241.429688 47.2861799,183.796875 64.3820049,138.488281 C81.4778299,93.1796875 -23.8502066,177.414063 5.04994763,101.835938 C24.3167171,51.4505208 48.0597904,18.8385417 76.2791673,4 C115.903497,35.6484375 134.999105,45.5885417 133.565992,33.8203125 C133.15083,30.4111506 137.691205,32.4188565 144.576274,37.5763945 Z M194.465842,110.237235 C188.897048,110.879561 178.979465,108.501091 163.255229,101.835938 C156.445206,98.9493208 150.2366,96.8089489 144.576274,95.3257187 C138.915952,96.8089476 132.707344,98.9493199 125.897319,101.835938 C110.173084,108.50109 100.255501,110.879561 94.6867071,110.237235 C81.1107158,134.503527 89.0663745,175.320312 84.3440568,175.320312 C80.5083733,175.320312 104.327735,159.903887 127.971635,146.13832 C126.680691,138.769535 124.017512,132.900512 119.9821,128.53125 C112.843703,120.802292 126.348675,126.796537 144.576274,136.750459 C162.803873,126.796537 176.308846,120.802292 169.170448,128.53125 C165.135036,132.900512 162.471857,138.769535 161.180913,146.13832 C184.824813,159.903887 208.644175,175.320312 204.808491,175.320312 C200.086173,175.320312 208.041834,134.50352 194.465837,110.237228 Z" id="Combined-Shape" fill="#E965BE"></path>
            <polygon id="Path" fill="#000000" points="44.3399558 143.186559 75.8289303 0.964644538 125.538033 68.3737058"></polygon>
            <polygon id="Path-Copy" fill="#000000" points="242.402352 150.400419 163.738298 68.82234 215.562255 5.71006916"></polygon>
        </g>
    </g>
</svg>